#!OML:ASF H:\Terrain\Patient Classification 1\Terrain2\Thursday\justin.ASF
:FULLY-SPECIFIED
:DEGREES
279
root 9.45062 23.3085 -0.257129 -1.96855 -4.25485 2.0647
lowerback 11.3341 -0.590851 -3.14659
upperback 2.4162 -1.10337 1.22536
thorax -3.74136 -0.515167 3.21189
lowerneck -15.4378 -2.02458 -8.13752
upperneck 27.3661 -2.01106 4.71646
head 11.6196 -1.17138 2.8498
rclavicle 7.95139e-015 5.56597e-015
rhumerus -31.5442 -6.3521 -77.8734
rradius 37.1955
rwrist -11.7741
rhand -19.2507 10.2342
rfingers 7.12502
rthumb 7.06314 -19.6279
lclavicle 7.95139e-015 5.56597e-015
lhumerus -32.8875 4.96282 81.3784
lradius 41.3116
lwrist 5.05738
lhand -11.7174 27.9642
lfingers 7.12502
lthumb 14.3293 57.4497
rfemur -47.1579 -6.84925 21.4993
rtibia 71.0508
rfoot -6.25778 -2.9074
rtoes 7.56911
lfemur -0.850487 -3.41267 -26.95
ltibia 31.3851
lfoot -23.9215 0.176628
ltoes 3.67118
280
root 9.44198 23.2956 -0.125716 -2.08277 -3.96633 2.20936
lowerback 11.0454 -0.694157 -3.19819
upperback 2.37206 -1.24014 1.17453
thorax -3.61759 -0.584481 3.2007
lowerneck -15.2367 -2.02455 -8.11086
upperneck 27.5321 -2.04001 4.71145
head 11.6449 -1.18728 2.84257
rclavicle 1.09829e-014 1.98785e-015
rhumerus -32.0169 -6.16362 -77.8532
rradius 37.2517
rwrist -12.5993
rhand -19.8878 9.99842
rfingers 7.12502
rthumb 6.44811 -19.8834
lclavicle 1.09829e-014 1.98785e-015
lhumerus -33.0141 4.81828 81.3808
lradius 41.5172
lwrist 4.58566
lhand -12.8383 26.3783
lfingers 7.12502
lthumb 13.249 55.9373
rfemur -46.6776 -7.00285 21.5429
rtibia 68.4051
rfoot -4.81905 -3.06712
rtoes 5.37468
lfemur -0.12822 -3.3901 -27.1011
ltibia 31.2331
lfoot -24.1466 0.0769303
ltoes 2.74428
281
root 9.43265 23.2764 0.00655443 -2.2464 -3.55473 2.07467
lowerback 10.8213 -0.822004 -3.08034
upperback 2.37823 -1.38428 1.30578
thorax -3.47585 -0.659742 3.2849
lowerneck -15.1622 -2.07192 -8.23108
upperneck 27.6638 -2.0873 4.72179
head 11.6869 -1.22277 2.86308
rclavicle -1.98288e-014 2.18663e-014
rhumerus -32.4373 -5.90926 -77.7199
rradius 37.4351
rwrist -13.7003
rhand -20.6674 9.52787
rfingers 7.12502
rthumb 5.69543 -20.3756
lclavicle -1.98288e-014 2.18663e-014
lhumerus -33.0907 4.17334 81.8683
lradius 41.5086
lwrist 6.22755
lhand -15.222 24.1847
lfingers 7.12502
lthumb 10.9506 53.8791
rfemur -45.9882 -7.17622 21.7468
rtibia 65.5869
rfoot -3.21329 -3.09006
rtoes 4.94088
lfemur 0.605497 -3.43198 -26.9088
ltibia 31.1288
lfoot -24.2062 -0.508304
ltoes 4.1572
282
root 9.4244 23.2442 0.138229 -2.43642 -3.1658 2.0984
lowerback 10.7013 -0.949727 -3.05837
upperback 2.37123 -1.5474 1.31627
thorax -3.40436 -0.742187 3.30164
lowerneck -15.1076 -2.14793 -8.30237
upperneck 27.7524 -2.21292 4.81739
head 11.7221 -1.27703 2.89503
rclavicle -5.71506e-015 -7.95139e-016
rhumerus -32.83 -6.13531 -77.4843
rradius 37.5334
rwrist -13.4431
rhand -20.8966 9.33296
rfingers 7.12502
rthumb 5.47418 -20.5763
lclavicle -5.71506e-015 -7.95139e-016
lhumerus -33.1459 3.4074 82.3535
lradius 41.6842
lwrist 8.29475
lhand -16.7413 23.0594
lfingers 7.12502
lthumb 9.48499 52.826
rfemur -45.2401 -7.3814 21.7538
rtibia 62.7115
rfoot -1.36934 -3.07183
rtoes 5.08062
lfemur 1.24958 -3.3817 -26.8871
ltibia 31.1991
lfoot -24.4992 -0.878765
ltoes 3.72434
283
root 9.41528 23.2087 0.273615 -2.61152 -2.91334 2.04468
lowerback 10.5346 -1.06265 -2.98119
upperback 2.3666 -1.68348 1.3367
thorax -3.30818 -0.812258 3.29199
lowerneck -14.9993 -2.15471 -8.20049
upperneck 27.8248 -2.23498 4.71957
head 11.7277 -1.29105 2.83895
rclavicle 8.54774e-015 1.03368e-014
rhumerus -33.2054 -6.46535 -77.1924
rradius 37.5519
rwrist -12.5561
rhand -20.9065 9.75242
rfingers 7.12502
rthumb 5.46459 -20.1571
lclavicle 8.54774e-015 1.03368e-014
lhumerus -33.0913 3.96071 81.9821
lradius 42.3121
lwrist 4.60698
lhand -12.0233 27.011
lfingers 7.12502
lthumb 14.0345 56.5171
rfemur -44.3993 -7.37292 21.7914
rtibia 59.8361
rfoot 0.552017 -3.1231
rtoes 7.59272
lfemur 1.83248 -3.15104 -26.7592
ltibia 31.4865
lfoot -25.0783 -0.965247
ltoes 0.883253
284
root 9.40242 23.1649 0.411153 -2.79796 -2.65641 1.66401
lowerback 10.3469 -1.15454 -2.72081
upperback 2.37697 -1.76433 1.56166
thorax -3.18838 -0.856679 3.38381
lowerneck -14.9228 -2.14623 -7.99899
upperneck 27.883 -2.17643 4.34599
head 11.7247 -1.29181 2.67329
rclavicle -8.05078e-015 3.18055e-015
rhumerus -33.5485 -6.60061 -76.7487
rradius 37.583
rwrist -12.787
rhand -20.2847 9.92213
rfingers 7.12502
rthumb 6.06494 -19.9711
lclavicle -8.05078e-015 3.18055e-015
lhumerus -33.0928 3.92807 82.0904
lradius 42.7046
lwrist 3.12831
lhand -10.1903 28.9754
lfingers 7.12502
lthumb 15.8004 58.3505
rfemur -43.4619 -7.20921 22.0944
rtibia 57.029
rfoot 2.48027 -3.15294
rtoes 9.93974
lfemur 2.39444 -2.82324 -26.196
ltibia 31.9236
lfoot -25.8166 -1.40909
ltoes -0.129969
285
root 9.388 23.1117 0.544775 -2.98666 -2.30337 1.5462
lowerback 10.1437 -1.24579 -2.69947
upperback 2.41685 -1.87384 1.69669
thorax -3.02221 -0.915156 3.51858
lowerneck -14.7969 -2.18499 -8.05552
upperneck 27.7925 -2.22112 4.33124
head 11.6684 -1.31935 2.66935
rclavicle 4.47266e-016 -2.3059e-014
rhumerus -33.8577 -6.5887 -76.4092
rradius 37.5772
rwrist -13.3324
rhand -19.8354 10.1196
rfingers 7.12502
rthumb 6.49869 -19.7607
lclavicle 4.47266e-016 -2.3059e-014
lhumerus -33.0326 3.22555 82.5669
lradius 42.6288
lwrist 4.95435
lhand -11.7408 27.623
lfingers 7.12502
lthumb 14.3067 57.1101
rfemur -42.5278 -7.19079 22.1429
rtibia 54.3088
rfoot 4.50595 -2.91172
rtoes 8.39063
lfemur 2.83991 -2.52334 -25.8839
ltibia 32.4882
lfoot -26.5327 -1.96917
ltoes 0.286064
286
root 9.37517 23.0663 0.674567 -3.20576 -1.91655 1.72752
lowerback 9.94625 -1.35282 -2.9291
upperback 2.49088 -2.03458 1.70707
thorax -2.81451 -0.999469 3.66964
lowerneck -14.6657 -2.22767 -8.31795
upperneck 27.7471 -2.29001 4.56486
head 11.6357 -1.34953 2.79149
rclavicle 9.74045e-015 -7.95139e-016
rhumerus -34.1081 -6.52399 -76.2023
rradius 37.4541
rwrist -13.2984
rhand -19.9668 10.645
rfingers 7.12502
rthumb 6.37186 -19.2391
lclavicle 9.74045e-015 -7.95139e-016
lhumerus -33.0168 2.21273 83.2148
lradius 42.4516
lwrist 8.27538
lhand -15.9036 23.4838
lfingers 7.12502
lthumb 10.2931 53.2119
rfemur -41.5471 -7.26431 21.8855
rtibia 51.6623
rfoot 6.49367 -2.67149
rtoes 6.36895
lfemur 3.19745 -2.22332 -25.9216
ltibia 33.2378
lfoot -26.6696 -2.54857
ltoes 0.0345313
287
root 9.36331 23.0176 0.806966 -3.42705 -1.59409 1.74696
lowerback 9.76516 -1.45351 -3.03441
upperback 2.52522 -2.17149 1.79847
thorax -2.65949 -1.07131 3.83267
lowerneck -14.6171 -2.24784 -8.4351
upperneck 27.8694 -2.28283 4.52614
head 11.675 -1.36607 2.80059
rclavicle 9.24349e-015 5.56597e-015
rhumerus -34.3641 -6.69078 -75.7744
rradius 37.2991
rwrist -12.8144
rhand -19.3032 10.8072
rfingers 7.12502
rthumb 7.01247 -19.0567
lclavicle 9.24349e-015 5.56597e-015
lhumerus -33.1477 2.29861 83.309
lradius 43.1397
lwrist 6.57941
lhand -14.1877 25.4215
lfingers 7.12502
lthumb 11.9481 55.0606
rfemur -40.5378 -7.25634 21.7672
rtibia 49.0771
rfoot 8.37774 -2.61785
rtoes 6.43543
lfemur 3.49318 -1.9562 -25.8078
ltibia 34.2103
lfoot -26.7248 -3.25078
ltoes -0.272998
288
root 9.34963 22.9526 0.942772 -3.62089 -1.2082 1.77175
lowerback 9.55847 -1.54624 -3.13336
upperback 2.59287 -2.29666 1.87762
thorax -2.4566 -1.13929 3.97523
lowerneck -14.5896 -2.28894 -8.4472
upperneck 27.7529 -2.29329 4.3757
head 11.6247 -1.38877 2.7423
rclavicle 8.59744e-015 7.15625e-015
rhumerus -34.6206 -6.77781 -75.4498
rradius 37.3
rwrist -12.6612
rhand -18.9802 10.6753
rfingers 7.12502
rthumb 7.32424 -19.1779
lclavicle 8.59744e-015 7.15625e-015
lhumerus -33.2461 1.80213 83.7282
lradius 43.5674
lwrist 7.43597
lhand -15.3269 24.8471
lfingers 7.12502
lthumb 10.8494 54.5468
rfemur -39.5693 -7.24041 21.5965
rtibia 46.5756
rfoot 10.1895 -2.40752
rtoes 5.50997
lfemur 3.66859 -1.84666 -25.6895
ltibia 35.3974
lfoot -27.0648 -4.16999
ltoes 0.167782
289
root 9.33445 22.8801 1.07603 -3.81521 -0.713034 1.80911
lowerback 9.3944 -1.65817 -3.21433
upperback 2.64889 -2.44797 1.90231
thorax -2.28935 -1.21948 4.05458
lowerneck -14.3264 -2.3445 -8.50612
upperneck 27.4488 -2.38192 4.40104
head 11.4623 -1.42895 2.74388
rclavicle -3.18055e-014 1.03368e-014
rhumerus -35.1092 -6.4917 -75.4367
rradius 37.5712
rwrist -13.1378
rhand -19.7667 10.3511
rfingers 7.12502
rthumb 6.56505 -19.5271
lclavicle -3.18055e-014 1.03368e-014
lhumerus -33.269 1.19158 84.0453
lradius 43.8565
lwrist 8.29509
lhand -15.8298 24.5724
lfingers 7.12502
lthumb 10.3644 54.297
rfemur -38.5894 -7.26126 21.3881
rtibia 44.2031
rfoot 11.6593 -2.47075
rtoes 5.80062
lfemur 3.72469 -1.73818 -25.5478
ltibia 36.8345
lfoot -27.4698 -4.87987
ltoes -0.523749
290
root 9.31976 22.8072 1.20667 -3.99855 -0.253778 1.97902
lowerback 9.29881 -1.75742 -3.42159
upperback 2.59958 -2.59761 1.87347
thorax -2.26556 -1.29347 4.15427
lowerneck -14.08 -2.36166 -8.58841
upperneck 27.4433 -2.46588 4.59902
head 11.4197 -1.45365 2.82048
rclavicle -1.93318e-014 1.82882e-014
rhumerus -35.7101 -6.13704 -75.496
rradius 37.7241
rwrist -13.4054
rhand -20.969 10.0038
rfingers 7.12502
rthumb 5.40428 -19.9073
lclavicle -1.93318e-014 1.82882e-014
lhumerus -33.4513 0.959374 84.0754
lradius 44.3347
lwrist 7.39628
lhand -14.4496 25.6029
lfingers 7.12502
lthumb 11.6955 55.2564
rfemur -37.6571 -7.38758 21.0955
rtibia 42.0279
rfoot 12.5929 -2.94921
rtoes 9.645
lfemur 3.61757 -1.48452 -25.5195
ltibia 38.5037
lfoot -27.7591 -5.51856
ltoes -0.432428
291
root 9.30623 22.7235 1.34232 -4.25573 0.259304 2.42307
lowerback 9.26417 -1.83296 -3.86088
upperback 2.58544 -2.74091 1.76169
thorax -2.23126 -1.3647 4.29915
lowerneck -14.1842 -2.38257 -8.64188
upperneck 27.702 -2.51639 4.73011
head 11.5465 -1.46893 2.87666
rclavicle 5.1684e-015 -2.38542e-015
rhumerus -36.1144 -6.23909 -75.3592
rradius 37.6702
rwrist -12.8525
rhand -21.5752 9.61336
rfingers 7.12502
rthumb 4.81895 -20.3118
lclavicle 5.1684e-015 -2.38542e-015
lhumerus -33.6257 0.615036 84.1557
lradius 44.8866
lwrist 6.53994
lhand -13.4359 26.1143
lfingers 7.12502
lthumb 12.6729 55.7098
rfemur -36.6814 -7.76279 20.5866
rtibia 40.0492
rfoot 13.5648 -2.8338
rtoes 10.3133
lfemur 3.47286 -1.28562 -25.7986
ltibia 40.3364
lfoot -27.8216 -6.51378
ltoes 1.19235
